<mxfile host="app.diagrams.net" modified="2024-02-05T16:28:25.192Z" agent="Mozilla/5.0 (Windows NT 10.0; Win64; x64) AppleWebKit/537.36 (KHTML, like Gecko) Chrome/120.0.0.0 YaBrowser/24.1.0.0 Safari/537.36" etag="BnT62YixcBRJT6_gglUX" version="23.0.2" type="device">
  <diagram name="Страница — 1" id="AE5RnEqZ_ffQpePT4x0g">
    <mxGraphModel dx="980" dy="531" grid="1" gridSize="10" guides="1" tooltips="1" connect="1" arrows="1" fold="1" page="1" pageScale="1" pageWidth="827" pageHeight="1169" math="0" shadow="0">
      <root>
        <mxCell id="0" />
        <mxCell id="1" parent="0" />
        <mxCell id="KnwtTSWQ44Sr03ZEw8L_-1" value="&lt;font style=&quot;font-size: 15px;&quot;&gt;Model&amp;nbsp;&lt;/font&gt;" style="rounded=1;whiteSpace=wrap;html=1;" vertex="1" parent="1">
          <mxGeometry x="320" y="60" width="120" height="60" as="geometry" />
        </mxCell>
        <mxCell id="KnwtTSWQ44Sr03ZEw8L_-2" value="&lt;font style=&quot;font-size: 15px;&quot;&gt;Controller&lt;/font&gt;" style="rounded=1;whiteSpace=wrap;html=1;" vertex="1" parent="1">
          <mxGeometry x="480" y="190" width="120" height="60" as="geometry" />
        </mxCell>
        <mxCell id="KnwtTSWQ44Sr03ZEw8L_-3" value="&lt;font style=&quot;font-size: 15px;&quot;&gt;View&lt;/font&gt;" style="rounded=1;whiteSpace=wrap;html=1;" vertex="1" parent="1">
          <mxGeometry x="170" y="190" width="120" height="60" as="geometry" />
        </mxCell>
        <mxCell id="KnwtTSWQ44Sr03ZEw8L_-11" value="" style="shape=actor;whiteSpace=wrap;html=1;" vertex="1" parent="1">
          <mxGeometry x="360" y="310" width="40" height="60" as="geometry" />
        </mxCell>
        <mxCell id="KnwtTSWQ44Sr03ZEw8L_-12" value="" style="endArrow=classic;html=1;rounded=0;entryX=0.5;entryY=1;entryDx=0;entryDy=0;exitX=0;exitY=0.75;exitDx=0;exitDy=0;fontSize=15;" edge="1" parent="1" source="KnwtTSWQ44Sr03ZEw8L_-11" target="KnwtTSWQ44Sr03ZEw8L_-3">
          <mxGeometry width="50" height="50" relative="1" as="geometry">
            <mxPoint x="370" y="360" as="sourcePoint" />
            <mxPoint x="440" y="190" as="targetPoint" />
          </mxGeometry>
        </mxCell>
        <mxCell id="KnwtTSWQ44Sr03ZEw8L_-22" value="&lt;font style=&quot;font-size: 15px;&quot;&gt;смотрит&lt;/font&gt;" style="edgeLabel;html=1;align=center;verticalAlign=middle;resizable=0;points=[];rotation=41;" vertex="1" connectable="0" parent="KnwtTSWQ44Sr03ZEw8L_-12">
          <mxGeometry x="0.0951" relative="1" as="geometry">
            <mxPoint x="-9" y="12" as="offset" />
          </mxGeometry>
        </mxCell>
        <mxCell id="KnwtTSWQ44Sr03ZEw8L_-16" value="" style="endArrow=classic;html=1;rounded=0;exitX=0.5;exitY=0;exitDx=0;exitDy=0;entryX=1;entryY=0.5;entryDx=0;entryDy=0;fontSize=12;" edge="1" parent="1" source="KnwtTSWQ44Sr03ZEw8L_-2" target="KnwtTSWQ44Sr03ZEw8L_-1">
          <mxGeometry width="50" height="50" relative="1" as="geometry">
            <mxPoint x="390" y="240" as="sourcePoint" />
            <mxPoint x="440" y="190" as="targetPoint" />
          </mxGeometry>
        </mxCell>
        <mxCell id="KnwtTSWQ44Sr03ZEw8L_-17" value="&lt;font style=&quot;font-size: 15px;&quot;&gt;изменения&lt;/font&gt;" style="edgeLabel;html=1;align=center;verticalAlign=middle;resizable=0;points=[];rotation=45;" vertex="1" connectable="0" parent="KnwtTSWQ44Sr03ZEw8L_-16">
          <mxGeometry x="-0.0081" relative="1" as="geometry">
            <mxPoint x="10" y="-5" as="offset" />
          </mxGeometry>
        </mxCell>
        <mxCell id="KnwtTSWQ44Sr03ZEw8L_-18" value="" style="endArrow=classic;html=1;rounded=0;exitX=0;exitY=0.5;exitDx=0;exitDy=0;entryX=0.5;entryY=0;entryDx=0;entryDy=0;fontSize=12;" edge="1" parent="1" source="KnwtTSWQ44Sr03ZEw8L_-1" target="KnwtTSWQ44Sr03ZEw8L_-3">
          <mxGeometry width="50" height="50" relative="1" as="geometry">
            <mxPoint x="390" y="240" as="sourcePoint" />
            <mxPoint x="440" y="190" as="targetPoint" />
          </mxGeometry>
        </mxCell>
        <mxCell id="KnwtTSWQ44Sr03ZEw8L_-29" value="&lt;font style=&quot;font-size: 16px;&quot;&gt;данные&lt;/font&gt;" style="edgeLabel;html=1;align=center;verticalAlign=middle;resizable=0;points=[];rotation=-45;" vertex="1" connectable="0" parent="KnwtTSWQ44Sr03ZEw8L_-18">
          <mxGeometry x="-0.0491" y="-1" relative="1" as="geometry">
            <mxPoint x="-16" y="-7" as="offset" />
          </mxGeometry>
        </mxCell>
        <mxCell id="KnwtTSWQ44Sr03ZEw8L_-20" value="" style="endArrow=classic;html=1;rounded=0;entryX=0.5;entryY=1;entryDx=0;entryDy=0;exitX=1;exitY=0.75;exitDx=0;exitDy=0;" edge="1" parent="1" source="KnwtTSWQ44Sr03ZEw8L_-11" target="KnwtTSWQ44Sr03ZEw8L_-2">
          <mxGeometry width="50" height="50" relative="1" as="geometry">
            <mxPoint x="420" y="360" as="sourcePoint" />
            <mxPoint x="497.677128615617" y="312.99870138878396" as="targetPoint" />
          </mxGeometry>
        </mxCell>
        <mxCell id="KnwtTSWQ44Sr03ZEw8L_-24" value="&lt;font style=&quot;font-size: 15px;&quot;&gt;вносит изменения&lt;/font&gt;" style="edgeLabel;html=1;align=center;verticalAlign=middle;resizable=0;points=[];rotation=323;" vertex="1" connectable="0" parent="KnwtTSWQ44Sr03ZEw8L_-20">
          <mxGeometry x="0.0206" y="4" relative="1" as="geometry">
            <mxPoint x="2" y="22" as="offset" />
          </mxGeometry>
        </mxCell>
        <mxCell id="KnwtTSWQ44Sr03ZEw8L_-30" value="&lt;font style=&quot;font-size: 18px;&quot;&gt;&lt;b&gt;Модель MVC&lt;/b&gt;&lt;/font&gt;" style="text;html=1;align=center;verticalAlign=middle;resizable=0;points=[];autosize=1;strokeColor=none;fillColor=none;" vertex="1" parent="1">
          <mxGeometry x="140" y="3" width="140" height="40" as="geometry" />
        </mxCell>
      </root>
    </mxGraphModel>
  </diagram>
</mxfile>
